sumo_dl_3
version=1
nRows=11
nColumns=46
inDegrees=yes
endheader
time	ground_force3_vx	ground_force3_vy	ground_force3_vz	ground_force3_px	ground_force3_py	ground_force3_pz	ground_torque3_x	ground_torque3_y	ground_torque3_z	ground_force5_vx	ground_force5_vy	ground_force5_vz	ground_force5_px	ground_force5_py	ground_force5_pz	ground_torque5_x	ground_torque5_y	ground_torque5_z	ground_force4_vx	ground_force4_vy	ground_force4_vz	ground_force4_px	ground_force4_py	ground_force4_pz	ground_torque4_x	ground_torque4_y	ground_torque4_z	ground_force1_vx	ground_force1_vy	ground_force1_vz	ground_force1_px	ground_force1_py	ground_force1_pz	ground_torque1_x	ground_torque1_y	ground_torque1_z	ground_force2_vx	ground_force2_vy	ground_force2_vz	ground_force2_px	ground_force2_py	ground_force2_pz	ground_torque2_x	ground_torque2_y	ground_torque2_z
13.120000	0.500813	473.554840	-191.198929	0.145707	0.000000	-0.439762	0.000008	0.076147	0.000007	-13.386370	482.337799	193.377625	0.174467	0.000000	-1.447120	0.000013	2.087070	0.000005	-1.619970	-9.011767	2.920934	0.200000	0.000000	-0.900000	-0.000000	-0.265719	-0.000000	-0.000000	-0.000000	0.000000	0.200000	0.000000	0.920000	0.000000	0.000000	0.000000	-2.507244	-111.176125	-0.894696	0.200000	0.000000	0.320000	0.000003	1.571741	-0.000000	
13.121000	0.500813	474.502258	-191.521515	0.145872	0.000000	-0.439362	0.000006	0.026058	0.000000	-13.225157	483.939575	192.573944	0.175310	0.000000	-1.446463	0.000045	1.852438	0.000005	-2.429816	-6.776568	2.435251	0.200000	0.000000	-0.900000	-0.000000	-0.395664	-0.000000	-1.061225	5.643093	-1.221055	0.216856	0.000000	1.009462	-0.000000	0.101224	0.000000	-2.829499	-109.905602	-0.573965	0.200000	0.000000	0.320000	0.000002	1.545777	-0.000000	
13.122000	1.144303	473.550903	-192.651794	0.145249	0.000000	-0.439028	0.000001	-0.380134	0.000004	-13.226175	483.934601	192.574280	0.174467	0.000000	-1.447752	0.000028	2.199134	0.000003	-3.238118	-7.412992	1.956708	0.200000	0.000000	-0.900000	-0.000000	-0.190329	-0.000000	-1.546490	6.903372	-0.576371	0.210386	0.000000	1.015408	-0.000000	0.027308	0.000000	-3.312882	-109.903015	-0.574983	0.200000	0.000000	0.320000	0.000002	1.487711	-0.000000	
13.123000	0.661684	474.181702	-191.683670	0.145479	0.000000	-0.439587	0.000014	-0.080980	0.000002	-13.868988	481.704376	193.216751	0.174867	0.000000	-1.447052	0.000081	1.927849	0.000010	-2.592403	-7.732548	1.793114	0.200000	0.000000	-0.900000	-0.000000	-0.351125	-0.000000	-0.737429	6.901257	-0.736906	0.205097	0.000000	1.051662	-0.000001	0.024319	0.000000	-3.312036	-110.852066	-0.735348	0.200000	0.000000	0.320000	0.000003	1.532749	-0.000000	
13.124000	1.305176	472.921661	-191.360397	0.145660	0.000000	-0.439128	0.000004	-0.040534	-0.000000	-12.902731	481.698059	193.056564	0.174145	0.000000	-1.447598	0.000010	2.114648	0.000004	-1.781012	-9.657955	2.439331	0.200000	0.000000	-0.900000	-0.000000	-0.175718	-0.000000	-0.415350	5.639445	0.066615	0.173197	0.000000	1.043011	-0.000001	-0.003309	0.000000	-2.988935	-112.136513	-0.893679	0.200000	0.000000	0.320000	0.000003	1.565018	-0.000000	
13.125000	0.983429	470.077087	-190.876328	0.145174	0.000000	-0.440962	0.000012	-0.108918	0.000004	-12.902220	479.790375	193.859238	0.174570	0.000000	-1.446275	0.000024	1.875143	0.000010	-1.133753	-9.012447	2.598845	0.200000	0.000000	-0.900000	-0.000000	-0.233015	-0.000000	-0.000000	-0.000000	0.000000	0.200000	0.000000	0.920000	0.000000	0.000000	0.000000	-2.348655	-113.087234	-0.412582	0.200000	0.000000	0.320000	0.000003	1.430242	-0.000000	
13.126000	2.431286	471.971985	-190.714844	0.145649	0.000000	-0.440075	0.000013	-0.031182	0.000002	-12.259407	479.471802	193.538498	0.174687	0.000000	-1.446649	0.000020	2.089192	0.000003	-1.619970	-9.019176	2.438311	0.200000	0.000000	-0.900000	-0.000000	-0.246577	-0.000000	-0.000000	-0.000000	0.000000	0.200000	0.000000	0.920000	0.000000	0.000000	0.000000	-2.187528	-113.721184	0.392299	0.200000	0.000000	0.320000	0.000003	1.442858	-0.000000	
13.127000	2.270413	469.443970	-190.231812	0.144874	0.000000	-0.440499	0.000002	-0.323942	0.000005	-13.385859	477.559509	194.020447	0.174612	0.000000	-1.447155	0.000040	2.011601	0.000006	-1.293251	-11.256072	3.082488	0.200000	0.000000	-0.900000	-0.000000	-0.116572	-0.000000	-0.000000	-0.000000	0.000000	0.200000	0.000000	0.920000	0.000000	0.000000	0.000000	-1.866119	-114.034348	0.230916	0.200000	0.000000	0.320000	0.000003	1.462393	-0.000000	
13.128000	2.592158	469.446228	-191.198929	0.145231	0.000000	-0.440639	0.000010	-0.212904	-0.000003	-12.258898	478.510834	193.858887	0.174259	0.000000	-1.445886	0.000032	1.990840	0.000004	-2.104642	-11.574958	2.599865	0.200000	0.000000	-0.900000	-0.000000	-0.195291	-0.000000	-1.386739	5.009737	0.064068	0.239123	0.000000	1.114449	-0.000000	-0.110783	0.000000	-1.224147	-112.127281	0.070550	0.200000	0.000000	0.320000	0.000003	1.379206	-0.000000	
13.129000	1.787796	470.707642	-191.199265	0.145279	0.000000	-0.440225	-0.000005	-0.032051	0.000004	-12.580305	476.925049	194.663605	0.174837	0.000000	-1.446756	-0.000017	1.963488	0.000004	-1.785645	-10.292357	2.917874	0.200000	0.000000	-0.900000	-0.000000	-0.543640	-0.000000	-0.899756	5.010223	0.386835	0.230470	0.000000	1.089826	-0.000000	0.055449	0.000000	-2.189220	-113.079414	-0.252216	0.200000	0.000000	0.320000	0.000003	1.353148	-0.000000	
13.130000	1.787795	470.708923	-190.553726	0.145362	0.000000	-0.441307	-0.000006	-0.008482	0.000002	-12.579794	478.199921	193.860596	0.175076	0.000000	-1.446461	0.000002	1.886470	0.000005	-1.781012	-10.289324	1.957728	0.200000	0.000000	-0.900000	-0.000000	-0.117926	-0.000000	-1.222693	5.326977	-0.254454	0.173189	0.000000	1.085520	-0.000000	-0.040263	0.000000	-1.864426	-110.859352	0.068515	0.200000	0.000000	0.320000	0.000003	1.648932	-0.000000	
